<?xml version="1.0" encoding="utf-8"?>
<svg viewBox="0 0 500 500" xmlns="http://www.w3.org/2000/svg">
  <g style="">
    <ellipse style="fill: none; stroke-width: 28px; stroke: rgb(255, 255, 255);" cx="250" cy="250" rx="225.257" ry="225.257"/>
    <g transform="matrix(1, 0, 0, 1, 58.957326, -51.37782)">
      <g>
        <g transform="matrix(1, 0, 0, 1, -20.432625, 24.000208)">
          <line style="stroke-width: 26px; transform-box: fill-box; transform-origin: 50% 50%; stroke: rgb(255, 255, 255);" x1="317.393" y1="227.346" x2="393.06" y2="151.679" transform="matrix(-1, 0, 0, -1, -0.000023, 0)"/>
          <line style="stroke-width: 26px; transform-origin: 412.735px 189.796px; stroke: rgb(255, 255, 255);" x1="374.901" y1="151.962" x2="425.429" y2="201.892"/>
        </g>
        <g transform="matrix(1, 0, 0, 1, -135.440935, 23.717451)">
          <line style="stroke-width: 26px; transform-box: fill-box; transform-origin: 50% 50%; stroke: rgb(255, 255, 255);" x1="317.393" y1="227.346" x2="393.06" y2="151.679" transform="matrix(-1, 0, 0, -1, -0.000023, 0)"/>
          <line style="stroke-width: 26px; transform-origin: 412.735px 189.796px; stroke: rgb(255, 255, 255);" x1="374.901" y1="151.962" x2="450.568" y2="227.629"/>
        </g>
      </g>
      <g transform="matrix(1, 0, 0, 1, -230.002109, -1.062869)">
        <g transform="matrix(1, 0, 0, 1, -20.432625, 24.000208)">
          <line style="stroke-width: 26px; transform-box: fill-box; transform-origin: 50% 50%; stroke: rgb(255, 255, 255);" x1="317.393" y1="227.346" x2="393.06" y2="151.679" transform="matrix(-1, 0, 0, -1, -0.000023, 0)"/>
          <line style="stroke-width: 26px; transform-origin: 412.735px 189.796px; stroke: rgb(255, 255, 255);" x1="374.901" y1="151.962" x2="450.568" y2="227.629"/>
        </g>
        <g transform="matrix(1, 0, 0, 1, -135.440935, 23.717451)">
          <line style="stroke-width: 26px; transform-box: fill-box; transform-origin: 50% 50%; stroke: rgb(255, 255, 255);" x1="317.393" y1="227.346" x2="363.731" y2="184.599" transform="matrix(-1, 0, 0, -1, 29.329005, -32.92)"/>
          <line style="stroke-width: 26px; transform-origin: 412.735px 189.796px; stroke: rgb(255, 255, 255);" x1="374.901" y1="151.962" x2="450.568" y2="227.629"/>
        </g>
      </g>
    </g>
    <g transform="matrix(1, 0, 0, 1, 58.957326, 27.007956)">
      <g>
        <g transform="matrix(1, 0, 0, 1, -20.432625, 24.000208)">
          <line style="stroke-width: 26px; transform-box: fill-box; transform-origin: 50% 50%; stroke: rgb(255, 255, 255);" x1="317.393" y1="227.346" x2="393.06" y2="151.679" transform="matrix(-1, 0, 0, -1, -0.000023, 0)"/>
          <line style="stroke-width: 26px; stroke: rgb(255, 255, 255);" x1="374.901" y1="151.962" x2="438.597" y2="209.074"/>
        </g>
        <g transform="matrix(1, 0, 0, 1, -135.440935, 23.717451)">
          <line style="stroke-width: 26px; transform-box: fill-box; transform-origin: 50% 50%; stroke: rgb(255, 255, 255);" x1="317.393" y1="227.346" x2="393.06" y2="151.679" transform="matrix(-1, 0, 0, -1, -0.000023, 0)"/>
          <line style="stroke-width: 26px; transform-origin: 412.735px 189.796px; stroke: rgb(255, 255, 255);" x1="374.901" y1="151.962" x2="450.568" y2="227.629"/>
        </g>
      </g>
      <g transform="matrix(1, 0, 0, 1, -230.002109, -1.062869)">
        <g transform="matrix(1, 0, 0, 1, -20.432625, 24.000208)">
          <line style="stroke-width: 26px; transform-box: fill-box; transform-origin: 50% 50%; stroke: rgb(255, 255, 255);" x1="317.393" y1="227.346" x2="393.06" y2="151.679" transform="matrix(-1, 0, 0, -1, -0.000023, 0)"/>
          <line style="stroke-width: 26px; transform-origin: 412.735px 189.796px; stroke: rgb(255, 255, 255);" x1="374.901" y1="151.962" x2="450.568" y2="227.629"/>
        </g>
        <g transform="matrix(1, 0, 0, 1, -135.440935, 23.717451)">
          <line style="stroke-width: 26px; transform-box: fill-box; transform-origin: 50% 50%; stroke: rgb(255, 255, 255);" x1="317.393" y1="227.346" x2="381.088" y2="169.636" transform="matrix(-1, 0, 0, -1, 11.971995, -17.956995)"/>
          <line style="stroke-width: 26px; transform-origin: 412.735px 189.796px; stroke: rgb(255, 255, 255);" x1="374.901" y1="151.962" x2="450.568" y2="227.629"/>
        </g>
      </g>
    </g>
    <g transform="matrix(1, 0, 0, 1, 58.957326, -127.234369)">
      <g>
        <g transform="matrix(1, 0, 0, 1, -20.432625, 24.000208)">
          <line style="stroke-width: 26px; transform-box: fill-box; transform-origin: 50% 50%; stroke: rgb(255, 255, 255);" x1="342.532" y1="199.812" x2="393.06" y2="151.679" transform="matrix(-1, 0, 0, -1, -25.139012, 27.534002)"/>
        </g>
        <g transform="matrix(1, 0, 0, 1, -135.440935, 23.717451)">
          <line style="stroke-width: 26px; transform-box: fill-box; transform-origin: 50% 50%; stroke: rgb(255, 255, 255);" x1="317.393" y1="227.346" x2="393.06" y2="151.679" transform="matrix(-1, 0, 0, -1, -0.000023, 0)"/>
          <line style="stroke-width: 26px; transform-origin: 412.735px 189.796px; stroke: rgb(255, 255, 255);" x1="374.901" y1="151.962" x2="450.568" y2="227.629"/>
        </g>
      </g>
      <g transform="matrix(1, 0, 0, 1, -230.002109, -1.062869)">
        <g transform="matrix(1, 0, 0, 1, -20.432625, 24.000208)">
          <line style="stroke-width: 26px; transform-box: fill-box; transform-origin: 50% 50%; stroke: rgb(255, 255, 255);" x1="317.393" y1="227.346" x2="393.06" y2="151.679" transform="matrix(-1, 0, 0, -1, -0.000023, 0)"/>
          <line style="stroke-width: 26px; transform-origin: 412.735px 189.796px; stroke: rgb(255, 255, 255);" x1="374.901" y1="151.962" x2="450.568" y2="227.629"/>
        </g>
        <g transform="matrix(1, 0, 0, 1, -135.440935, 23.717451)">
          <line style="stroke-width: 26px; transform-origin: 412.735px 189.796px; stroke: rgb(255, 255, 255);" x1="398.245" y1="180.693" x2="450.568" y2="227.629"/>
        </g>
      </g>
    </g>
    <g transform="matrix(1, 0, 0, 1, 58.957326, -197.479739)">
      <g>
        <g transform="matrix(1, 0, 0, 1, -20.432625, 24.000208)"/>
        <g transform="matrix(1, 0, 0, 1, -135.440935, 23.717451)">
          <line style="stroke-width: 26px; stroke: rgb(255, 255, 255);" x1="356.299" y1="183.053" x2="393.06" y2="151.679" transform="matrix(-1, 0, 0, -1, 710.452979929685, 379.024993896484)"/>
        </g>
      </g>
      <g transform="matrix(1, 0, 0, 1, -230.002109, -1.062869)">
        <g transform="matrix(1, 0, 0, 1, -20.432625, 24.000208)">
          <line style="stroke-width: 26px; stroke: rgb(255, 255, 255);" x1="416.201" y1="197.452" x2="450.568" y2="227.629"/>
        </g>
        <g transform="matrix(1, 0, 0, 1, -135.440935, 23.717451)"/>
      </g>
    </g>
    <g transform="matrix(1, 0, 0, 1, 56.862309, 105.216089)">
      <g>
        <g transform="matrix(1, 0, 0, 1, -20.432625, 24.000208)">
          <line style="stroke-width: 26px; transform-box: fill-box; transform-origin: 50% 50%; stroke: rgb(255, 255, 255);" x1="317.393" y1="227.346" x2="393.06" y2="151.679" transform="matrix(-1, 0, 0, -1, -0.000023, 0)"/>
          <line style="stroke-width: 26px; transform-origin: 412.735px 189.796px; stroke: rgb(255, 255, 255);" x1="374.901" y1="151.962" x2="425.429" y2="200.695"/>
        </g>
        <g transform="matrix(1, 0, 0, 1, -135.440935, 23.717451)">
          <line style="stroke-width: 26px; transform-box: fill-box; transform-origin: 50% 50%; stroke: rgb(255, 255, 255);" x1="317.393" y1="227.346" x2="393.06" y2="151.679" transform="matrix(-1, 0, 0, -1, -0.000023, 0)"/>
          <line style="stroke-width: 26px; transform-origin: 412.735px 189.796px; stroke: rgb(255, 255, 255);" x1="374.901" y1="151.962" x2="450.568" y2="227.629"/>
        </g>
      </g>
      <g transform="matrix(1, 0, 0, 1, -230.002109, -1.062869)">
        <g transform="matrix(1, 0, 0, 1, -20.432625, 24.000208)">
          <line style="stroke-width: 26px; transform-box: fill-box; transform-origin: 50% 50%; stroke: rgb(255, 255, 255);" x1="317.393" y1="227.346" x2="393.06" y2="151.679" transform="matrix(-1, 0, 0, -1, -0.000023, 0)"/>
          <line style="stroke-width: 26px; transform-origin: 412.735px 189.796px; stroke: rgb(255, 255, 255);" x1="374.901" y1="151.962" x2="450.568" y2="227.629"/>
        </g>
        <g transform="matrix(1, 0, 0, 1, -135.440935, 23.717451)">
          <line style="stroke-width: 26px; transform-box: fill-box; transform-origin: 50% 50%; stroke: rgb(255, 255, 255);" x1="317.393" y1="227.346" x2="368.519" y2="176.818" transform="matrix(-1, 0, 0, -1, 24.541011, -25.138994)"/>
          <line style="stroke-width: 26px; transform-origin: 412.735px 189.796px; stroke: rgb(255, 255, 255);" x1="374.901" y1="151.962" x2="450.568" y2="227.629"/>
        </g>
      </g>
    </g>
    <g transform="matrix(1, 0, 0, 1, 56.862309, 180.483996)">
      <g>
        <g transform="matrix(1, 0, 0, 1, -20.432625, 24.000208)">
          <line style="stroke-width: 26px; transform-box: fill-box; transform-origin: 50% 50%; stroke: rgb(255, 255, 255);" x1="317.393" y1="227.346" x2="393.06" y2="151.679" transform="matrix(-1, 0, 0, -1, -0.000023, 0)"/>
        </g>
        <g transform="matrix(1, 0, 0, 1, -135.440935, 23.717451)">
          <line style="stroke-width: 26px; transform-box: fill-box; transform-origin: 50% 50%; stroke: rgb(255, 255, 255);" x1="317.393" y1="227.346" x2="393.06" y2="151.679" transform="matrix(-1, 0, 0, -1, -0.000023, 0)"/>
          <line style="stroke-width: 26px; transform-origin: 412.735px 189.796px; stroke: rgb(255, 255, 255);" x1="374.901" y1="151.962" x2="450.568" y2="227.629"/>
        </g>
      </g>
      <g transform="matrix(1, 0, 0, 1, -230.002109, -1.062869)">
        <g transform="matrix(1, 0, 0, 1, -20.432625, 24.000208)">
          <line style="stroke-width: 26px; transform-box: fill-box; transform-origin: 50% 50%; stroke: rgb(255, 255, 255);" x1="317.393" y1="227.346" x2="393.06" y2="151.679" transform="matrix(-1, 0, 0, -1, -0.000023, 0)"/>
          <line style="stroke-width: 26px; transform-origin: 412.735px 189.796px; stroke: rgb(255, 255, 255);" x1="374.901" y1="151.962" x2="450.568" y2="227.629"/>
        </g>
        <g transform="matrix(1, 0, 0, 1, -135.440935, 23.717451)">
          <line style="stroke-width: 26px; transform-origin: 412.735px 189.796px; stroke: rgb(255, 255, 255);" x1="374.901" y1="151.962" x2="450.568" y2="227.629"/>
        </g>
      </g>
    </g>
    <g transform="matrix(1, 0, 0, 1, 56.562825, 253.515583)">
      <g>
        <g transform="matrix(1, 0, 0, 1, -20.432625, 24.000208)"/>
        <g transform="matrix(1, 0, 0, 1, -135.440935, 23.717451)">
          <line style="stroke-width: 26px; transform-box: fill-box; transform-origin: 50% 50%; stroke: rgb(255, 255, 255);" x1="317.393" y1="227.346" x2="361.935" y2="180.409" transform="matrix(-1, 0, 0, -1, 31.125011, -28.729998)"/>
          <line style="stroke-width: 26px; transform-origin: 412.735px 189.796px; stroke: rgb(255, 255, 255);" x1="374.901" y1="151.962" x2="412.261" y2="186.927"/>
        </g>
      </g>
      <g transform="matrix(1, 0, 0, 1, -230.002109, -1.062869)">
        <g transform="matrix(1, 0, 0, 1, -20.432625, 24.000208)">
          <line style="stroke-width: 26px; transform-box: fill-box; transform-origin: 50% 50%; stroke: rgb(255, 255, 255);" x1="317.393" y1="227.346" x2="355.95" y2="189.387" transform="matrix(-1, 0, 0, -1, 37.109996, -37.707979)"/>
          <line style="stroke-width: 26px; transform-origin: 412.735px 189.796px; stroke: rgb(255, 255, 255);" x1="374.901" y1="151.962" x2="426.027" y2="202.49"/>
        </g>
        <g transform="matrix(1, 0, 0, 1, -135.440935, 23.717451)"/>
      </g>
    </g>
  </g>
  <line style="stroke: rgb(178, 0, 0); paint-order: stroke; stroke-width: 34px; transform-origin: 250.058px 168.552px;" x1="250.058" y1="283.773" x2="250.058" y2="53.33" transform="matrix(-1, 0, -8.3217e-8, -1, 0, -0.000020207225)"/>
  <line style="stroke: rgb(178, 0, 0); paint-order: stroke; stroke-width: 34px; transform-origin: 173.063px 313.251px;" x1="378.447" y1="194.74" x2="240.78" y2="276.14"/>
</svg>