<svg xmlns="http://www.w3.org/2000/svg" viewBox="0 0 90 112.5" x="0px" y="0px"><title>Circled_Bird_Icon</title><g><path d="M73.59,46.38l2.83-2.83L60.22,27.36l-8.51,8.51L45,29.15l-6.72,6.72-8.51-8.51L13.59,43.55l2.83,2.83L29.78,33l5.68,5.68L25.15,49,45,68.85,64.85,49,54.55,38.7,60.22,33ZM45,63.19,30.81,49,45,34.81,59.19,49Z"/><path d="M45,83.67A38.67,38.67,0,1,1,83.67,45,38.71,38.71,0,0,1,45,83.67Zm0-73.33A34.67,34.67,0,1,0,79.67,45,34.71,34.71,0,0,0,45,10.33Z"/></g><text x="0" y="105" fill="#000000" font-size="5px" font-weight="bold" font-family="'Helvetica Neue', Helvetica, Arial-Unicode, Arial, Sans-serif">Created by Leo Kennedy</text><text x="0" y="110" fill="#000000" font-size="5px" font-weight="bold" font-family="'Helvetica Neue', Helvetica, Arial-Unicode, Arial, Sans-serif">from the Noun Project</text></svg>