<svg xmlns="http://www.w3.org/2000/svg" xmlns:xlink="http://www.w3.org/1999/xlink" version="1.1" x="0px" y="0px" viewBox="0 0 100 125" enable-background="new 0 0 100 100" xml:space="preserve"><g><path d="M72.2,48.2L71,47.3c-0.1,0-0.1-0.1-0.2,0c-0.1,0-0.1,0-0.2,0.1l-1.4,2c-0.1,0.1-0.1,0.3,0.1,0.3l0.2,0.1c0,0,0.1,0,0.1,0   c0,0,0,0,0,0c0.1,0,0.1,0,0.2-0.1l0.5-0.7l0.7,0.5c0.1,0,0.1,0.1,0.2,0c0.1,0,0.1,0,0.2-0.1l0.1-0.2c0.1-0.1,0.1-0.3-0.1-0.3   l-0.7-0.5l0.2-0.3l0.8,0.6c0.1,0.1,0.3,0.1,0.3-0.1l0.1-0.2c0-0.1,0.1-0.1,0-0.2C72.3,48.3,72.3,48.3,72.2,48.2z"/><path d="M69.6,51.4c-0.1-0.1-0.2-0.2-0.3-0.2l-0.9-0.6c-0.1-0.1-0.3-0.1-0.3,0.1l-1.4,2c0,0.1-0.1,0.1,0,0.2c0,0.1,0,0.1,0.1,0.2   L67,53c0.1,0.1,0.3,0.1,0.3-0.1l0.5-0.7l0.5,0.4c0.1,0,0.1,0.1,0.1,0.1c0,0,0,0.1,0,0.1c0,0,0,0.1-0.1,0.1c0,0.1-0.1,0.1-0.1,0.2   l0,0.1c0,0-0.1,0.1-0.1,0.1c0,0,0,0.1-0.1,0.1c0,0.1,0,0.1,0,0.2c0,0.1,0,0.2,0.1,0.2l0.2,0.1c0,0,0.1,0,0.1,0c0,0,0.1,0,0.1,0   c0.1,0,0.1-0.2,0.1-0.2c0,0,0-0.1,0.1-0.1c0,0,0-0.1,0.1-0.1l-0.2-0.1c0,0,0,0,0,0l0.2,0.1l0-0.1c0-0.1,0.1-0.1,0.1-0.2   c0-0.1,0.1-0.2,0.1-0.3c0,0,0,0,0,0c0,0,0.1,0,0.1,0c0.2-0.1,0.3-0.2,0.4-0.3c0.1-0.1,0.1-0.2,0.2-0.4c0-0.1,0-0.2,0-0.4   C69.7,51.6,69.7,51.5,69.6,51.4z M68.8,52.1c0,0-0.1,0-0.1-0.1l-0.5-0.4l0.3-0.4l0.5,0.4c0.1,0.1,0.1,0.1,0.1,0.2   c0,0,0,0.1-0.1,0.2c0,0,0,0-0.1,0.1C68.9,52.1,68.9,52.1,68.8,52.1C68.8,52.1,68.8,52.1,68.8,52.1z"/><path d="M66.7,54.2c-0.1-0.1-0.3-0.1-0.3,0.1l-1.4,2c0,0.1-0.1,0.1,0,0.2c0,0.1,0,0.1,0.1,0.2l0.2,0.1c0,0,0.1,0,0.1,0   c0.1,0,0.2,0,0.2-0.1l1.4-2c0-0.1,0.1-0.1,0-0.2c0-0.1,0-0.1-0.1-0.2L66.7,54.2z"/><path d="M63.9,57.1c-0.1-0.1-0.3-0.1-0.3,0.1l-1.4,2c0,0.1-0.1,0.1,0,0.2c0,0.1,0,0.1,0.1,0.2l1.4,1c0,0,0.1,0,0.1,0c0,0,0,0,0,0   c0.1,0,0.1,0,0.2-0.1l0.1-0.2c0.1-0.1,0.1-0.3-0.1-0.3l-1-0.7l0.3-0.4l0.9,0.6c0.1,0.1,0.3,0.1,0.3-0.1l0.1-0.2   c0-0.1,0.1-0.1,0-0.2c0-0.1,0-0.1-0.1-0.2l-0.9-0.6l0.2-0.3l1,0.7c0.1,0.1,0.3,0.1,0.3-0.1l0.1-0.2c0-0.1,0.1-0.1,0-0.2   c0-0.1,0-0.1-0.1-0.2L63.9,57.1z"/><path d="M62.7,61.3c-0.1,0-0.1-0.1-0.2,0c-0.1,0-0.1,0-0.2,0.1l-0.7,1l0-1.7c0-0.1,0-0.2-0.1-0.2l-0.2-0.1   c-0.1-0.1-0.3-0.1-0.3,0.1l-1.4,2c0,0.1-0.1,0.1,0,0.2c0,0.1,0,0.1,0.1,0.2l0.2,0.1c0.1,0.1,0.3,0.1,0.3-0.1l0.7-1l0,1.7   c0,0.1,0,0.2,0.1,0.2l0.2,0.1c0,0,0.1,0,0.1,0c0,0,0,0,0,0c0.1,0,0.1,0,0.2-0.1l1.4-2c0.1-0.1,0.1-0.3-0.1-0.3L62.7,61.3z"/><path d="M59.7,64.1l-0.7-0.5c-0.1,0-0.1-0.1-0.2,0c-0.1,0-0.1,0-0.2,0.1l-1.4,2c-0.1,0.1-0.1,0.3,0.1,0.3l0.7,0.5   c0.3,0.2,0.6,0.3,0.8,0.3c0.1,0,0.1,0,0.2,0c0.3-0.1,0.6-0.3,0.9-0.7s0.4-0.7,0.3-1.1C60.3,64.7,60.1,64.4,59.7,64.1z M58.7,66   c-0.1,0-0.2-0.1-0.3-0.2l-0.2-0.1l0.9-1.2l0.2,0.1c0.1,0.1,0.2,0.2,0.3,0.3c0.1,0.1,0.1,0.1,0.1,0.2s0,0.2,0,0.2   c0,0.1-0.1,0.2-0.2,0.3c-0.1,0.1-0.2,0.2-0.3,0.3C59.1,66,59,66,58.9,66C58.8,66,58.8,66,58.7,66z"/><path d="M57.8,67.6c-0.1-0.1-0.2-0.2-0.3-0.3c-0.2-0.1-0.3-0.2-0.5-0.2c-0.2,0-0.3,0-0.4,0c-0.1,0-0.2,0.1-0.3,0.2   c-0.1,0.1-0.2,0.1-0.2,0.2c-0.1,0.1-0.1,0.2-0.1,0.3c0,0.1,0,0.2,0,0.3c0,0.1,0.1,0.2,0.1,0.3c0,0.1,0.1,0.1,0.1,0.2l0.4,0.4   c0,0,0.1,0.1,0.1,0.1c0,0,0,0.1,0.1,0.1c0,0,0,0,0,0.1c0,0-0.1,0-0.1,0.1c0,0-0.1,0-0.1,0c0,0-0.1,0-0.1,0c0,0-0.1,0-0.1-0.1   c-0.1-0.1-0.1-0.1-0.2-0.2c0,0-0.1-0.1-0.1-0.1c0,0,0-0.1,0-0.1c0,0,0-0.1,0.1-0.2c0-0.1,0.1-0.1,0-0.2c0-0.1,0-0.1-0.1-0.2   l-0.2-0.1c-0.1-0.1-0.3-0.1-0.3,0c-0.1,0.1-0.2,0.3-0.2,0.4c0,0.2,0,0.3,0,0.4c0,0.1,0.1,0.3,0.2,0.4c0.1,0.1,0.2,0.2,0.3,0.3   c0.1,0.1,0.3,0.2,0.4,0.2c0.1,0,0.2,0.1,0.3,0.1c0,0,0.1,0,0.1,0c0.1,0,0.2,0,0.2,0c0.1,0,0.2-0.1,0.2-0.1c0.1,0,0.1-0.1,0.2-0.1   c0,0,0.1-0.1,0.1-0.1c0.1-0.1,0.1-0.2,0.1-0.3c0-0.1,0-0.2,0-0.3c0-0.1-0.1-0.2-0.1-0.3c0-0.1-0.1-0.2-0.2-0.2l-0.4-0.5   c0,0,0-0.1-0.1-0.1L56.4,68c0,0,0,0,0,0l0.2-0.1c0,0,0.1-0.1,0.1-0.1c0.1,0,0.1,0,0.2,0c0,0,0.1,0,0.1,0.1c0,0,0.1,0.1,0.1,0.1   c0,0,0.1,0.1,0.1,0.1c0,0,0,0.1,0,0.1c0,0,0,0.1-0.1,0.1c-0.1,0.1,0,0.3,0.1,0.3l0.2,0.1c0.1,0.1,0.3,0.1,0.3-0.1   c0.1-0.1,0.2-0.3,0.2-0.4c0-0.1,0-0.3,0-0.4C57.9,67.9,57.8,67.8,57.8,67.6z"/><path d="M32.5,43c-0.1-0.1-0.2-0.1-0.3-0.1l-1-0.3c-0.1,0-0.1,0-0.2,0c-0.1,0-0.1,0.1-0.1,0.1L30.2,45c0,0.1,0,0.1,0,0.2   c0,0.1,0.1,0.1,0.1,0.1l1,0.3c0.1,0,0.3,0.1,0.4,0.1c0,0,0.1,0,0.1,0c0.1,0,0.1,0,0.2,0c0.1,0,0.2-0.1,0.3-0.1   c0.1,0,0.1-0.1,0.2-0.2c0-0.1,0.1-0.1,0.1-0.2c0-0.1,0-0.1,0.1-0.1c0.1-0.2,0.1-0.4,0-0.6c0,0,0-0.1,0-0.1c0,0,0,0,0,0   c0.1,0,0.1-0.1,0.2-0.2c0.1-0.1,0.1-0.2,0.1-0.2c0-0.1,0.1-0.3,0-0.4c0-0.1-0.1-0.2-0.2-0.3C32.7,43.1,32.6,43.1,32.5,43z    M31.1,44.4l0.5,0.2c0.1,0,0.2,0.1,0.3,0.2c0,0,0,0.1,0,0.2c0,0.1,0,0.1-0.1,0.1c0,0,0,0-0.1,0c0,0,0,0-0.1,0c-0.1,0-0.1,0-0.2,0   L31,44.8L31.1,44.4z M31.5,43.4l0.5,0.2c0.1,0,0.2,0.1,0.2,0.1c0,0,0,0,0,0.2c0,0-0.1,0.1-0.1,0.1c0,0-0.1,0-0.1,0c0,0-0.1,0-0.2,0   l-0.5-0.2L31.5,43.4z"/><path d="M31.7,46.9l-1.6-0.5c-0.1,0-0.3,0-0.3,0.2L29,48.9c0,0.1,0,0.3,0.2,0.3l1.6,0.5c0,0,0.1,0,0.1,0c0,0,0.1,0,0.1,0   c0.1,0,0.1-0.1,0.1-0.1l0.1-0.2c0-0.1,0-0.3-0.2-0.3l-1.1-0.4l0.1-0.4l1,0.3c0.1,0,0.3,0,0.3-0.2l0.1-0.2c0-0.1,0-0.1,0-0.2   c0-0.1-0.1-0.1-0.1-0.1l-1-0.3l0.1-0.3l1.1,0.4c0.1,0,0.1,0,0.2,0c0.1,0,0.1-0.1,0.1-0.1l0.1-0.2c0-0.1,0-0.1,0-0.2   C31.8,47,31.7,47,31.7,46.9z"/><path d="M29.9,50.6c-0.1-0.1-0.2-0.1-0.4-0.2c-0.2-0.1-0.4-0.1-0.5-0.1c-0.2,0-0.3,0.1-0.4,0.1c-0.1,0.1-0.2,0.1-0.3,0.2   c-0.1,0.1-0.1,0.2-0.1,0.2c0,0.1-0.1,0.2,0,0.3c0,0.1,0,0.2,0.1,0.3c0,0.1,0.1,0.2,0.2,0.2c0.1,0.1,0.1,0.1,0.2,0.1l0.5,0.3   c0,0,0.1,0.1,0.1,0.1c0,0,0.1,0.1,0.1,0.1c0,0,0,0,0,0.1c0,0,0,0.1,0,0.1c0,0-0.1,0-0.1,0c0,0-0.1,0-0.1,0c-0.1,0-0.1,0-0.1,0   c-0.1,0-0.2-0.1-0.2-0.1c-0.1,0-0.1-0.1-0.1-0.1c0,0,0-0.1,0-0.1c0,0,0-0.1,0-0.2c0-0.1,0-0.1,0-0.2s-0.1-0.1-0.1-0.1l-0.2-0.1   c-0.1,0-0.3,0-0.3,0.1c-0.1,0.2-0.1,0.3-0.1,0.5c0,0.2,0.1,0.3,0.1,0.4c0.1,0.1,0.2,0.2,0.3,0.3c0.1,0.1,0.3,0.1,0.4,0.2   c0.2,0.1,0.3,0.1,0.4,0.1c0,0,0.1,0,0.1,0c0.1,0,0.2,0,0.2,0c0.1,0,0.2-0.1,0.3-0.1c0.1,0,0.1-0.1,0.2-0.2C29.9,53,30,53,30,52.9   c0-0.1,0-0.1,0.1-0.1c0-0.1,0.1-0.2,0-0.4c0-0.1,0-0.2-0.1-0.3c0-0.1-0.1-0.2-0.2-0.2c-0.1-0.1-0.1-0.1-0.2-0.2L29,51.4   c0,0-0.1,0-0.1-0.1c0,0,0,0,0,0l-0.2,0.1c0,0,0,0,0,0l0.2-0.2c0-0.1,0-0.1,0.1-0.1c0,0,0,0,0.1,0c0,0,0,0,0.1,0c0.1,0,0.1,0,0.2,0   c0.1,0,0.1,0,0.2,0.1c0,0,0.1,0.1,0.1,0.1c0,0,0,0.1,0,0.1c0,0,0,0.1,0,0.1c0,0.1,0,0.3,0.2,0.3l0.2,0.1c0.1,0,0.1,0,0.2,0   c0.1,0,0.1-0.1,0.1-0.1c0-0.2,0.1-0.3,0-0.5c0-0.1-0.1-0.3-0.1-0.4C30.1,50.8,30,50.7,29.9,50.6z"/><path d="M29.2,54.6L27.4,54c-0.1,0-0.1,0-0.2,0c-0.1,0-0.1,0.1-0.1,0.1L27,54.4c0,0.1,0,0.3,0.2,0.3l0.6,0.2l-0.6,1.9   c0,0.1,0,0.3,0.2,0.3l0.2,0.1c0,0,0.1,0,0.1,0c0,0,0.1,0,0.1,0c0.1,0,0.1-0.1,0.1-0.1l0.6-1.9l0.6,0.2c0.1,0,0.3,0,0.3-0.2l0.1-0.2   c0-0.1,0-0.1,0-0.2C29.3,54.7,29.2,54.6,29.2,54.6z"/></g><g><path d="M83.6,35.5c0.9-1.3,0.5-3.1-0.8-4.1c-0.5-0.3-1-0.5-1.6-0.5c-1,0-1.9,0.5-2.4,1.3l-3.5,5.3c-0.1,0-0.3,0-0.4,0   c-1.7,0-3.3,0.9-4.3,2.2c-0.2,0-0.5-0.1-0.7-0.1c-0.5,0-1.1,0.1-1.7,0.2c-7.5,1.5-12.7,8.5-12.9,8.8c-0.1,0.1-0.1,0.3-0.1,0.4   l2.5,9.7l-7.5,2.3c-0.2,0.1-0.4,0.3-0.4,0.5l0.3,7.6l-3.5,1c-0.1,0-0.3,0.1-0.3,0.3l-2.8,6.1c-0.1,0.2-0.1,0.4,0.1,0.5   c0.1,0.1,0.2,0.2,0.4,0.2c0,0,0,0,0.1,0c15.5-2.2,27.5-8.3,32.9-16.8c2.6-4.1,3.4-8.6,2.3-12.6c0-0.1-0.2-0.5-0.5-1.1   c1.1-1.1,1.6-2.5,1.6-3.9c0-0.6-0.2-1.3-0.4-1.9c0-0.1,0.1-0.1,0.1-0.2L83.6,35.5z M79.6,32.8c0.4-0.5,0.9-0.8,1.6-0.8   c0.4,0,0.7,0.1,1.1,0.3c0.9,0.6,1.1,1.8,0.5,2.6l-3.5,5.3c-0.1,0.1-0.1,0.2-0.2,0.3c0,0,0,0,0,0c0,0-0.1,0.1-0.1,0.1   c-0.1,0-0.1,0.1-0.2,0.1c0,0-0.1,0.1-0.1,0.1c-0.1,0-0.1,0.1-0.2,0.1c0,0-0.1,0-0.1,0.1c-0.1,0-0.1,0-0.2,0.1c0,0-0.1,0-0.1,0   c-0.1,0-0.1,0-0.2,0c0,0-0.1,0-0.1,0c-0.1,0-0.1,0-0.2,0c0,0-0.1,0-0.1,0c-0.1,0-0.2,0-0.2-0.1c0,0-0.1,0-0.1,0   c-0.1,0-0.2-0.1-0.3-0.2c-0.1-0.1-0.2-0.1-0.3-0.2c0,0-0.1-0.1-0.1-0.1c0-0.1-0.1-0.1-0.1-0.2c0-0.1-0.1-0.1-0.1-0.2   c0,0,0-0.1-0.1-0.1c0-0.1-0.1-0.2-0.1-0.2c0,0,0-0.1,0-0.1c0-0.1,0-0.2,0-0.3c0,0,0,0,0,0c0-0.3,0-0.7,0.2-1c0,0,0,0,0,0   c0-0.1,0.1-0.1,0.1-0.2L79.6,32.8z M76.1,59.9c-5.1,8-16.5,13.9-31.3,16.2L47,71l3.6-1c0.2-0.1,0.4-0.3,0.4-0.5l-0.3-7.6l7.6-2.3   c0.3-0.1,0.4-0.3,0.3-0.6l-2.6-9.9c0.9-1.1,5.7-7,12.2-8.2c0.5-0.1,1-0.1,1.5-0.1c0.3,0,0.7,0,1,0.1c0.1,0,0.1,0,0.2,0   c0.3,0,0.5,0.1,0.8,0.2c0,0,0.1,0,0.1,0c4.4,1.5,6.4,7.1,6.4,7.2C79.3,51.9,78.5,56.1,76.1,59.9z M78.2,45.8   c-1-1.8-2.7-4.3-5.4-5.5c-0.1,0-0.1,0-0.2-0.1c-0.3-0.1-0.6-0.2-0.9-0.3c0,0-0.1,0-0.1,0c0.8-0.9,1.9-1.4,3.2-1.4   c0,0.1,0,0.2-0.1,0.3c0,0.1,0,0.1,0,0.2c0,0.1,0,0.2,0,0.3c0,0.1,0,0.2,0,0.2c0,0.1,0,0.2,0,0.2c0,0.2,0.1,0.3,0.1,0.5   c0,0,0,0.1,0.1,0.1c0.1,0.1,0.1,0.2,0.2,0.3c0,0,0.1,0.1,0.1,0.1c0.1,0.1,0.2,0.2,0.2,0.3c0,0,0.1,0.1,0.1,0.1   c0.1,0.1,0.3,0.2,0.4,0.3c0.5,0.3,1,0.5,1.6,0.5c0.5,0,1-0.1,1.4-0.4c0,0,0,0,0,0c0.1,0.4,0.2,0.8,0.2,1.2C79.3,44,79,45,78.2,45.8   z"/><path d="M44.8,36.7c-0.3-0.6-0.6-1.2-0.9-1.7c0.5-1.2,0.6-2.4,0.2-3.6c-0.2-0.6-0.5-1.2-0.9-1.7c0-0.1,0.1-0.1,0.1-0.2l2-6.1   c0.2-0.7,0.2-1.5-0.2-2.2c-0.3-0.7-0.9-1.2-1.7-1.5c-0.3-0.1-0.6-0.1-0.9-0.1c-1.3,0-2.4,0.8-2.8,2l-2,6.1c-0.1,0-0.3,0-0.4,0.1   c-1.8,0.5-3.2,2-3.7,3.8c-1,0.1-1.6,0.3-1.7,0.3c-4,1.2-7.2,4.3-9.3,8.8c-4.1,9.1-2.7,22.5,4,36.8c0.1,0.2,0.3,0.3,0.5,0.3   c0,0,0,0,0,0c0.2,0,0.4-0.1,0.4-0.3l2.1-6l3.3-0.6c0.2,0,0.4-0.3,0.4-0.5l-0.4-8.5l7.5-2.2c0.1,0,0.2-0.1,0.3-0.2   c0.1-0.1,0.1-0.3,0-0.4l-2.9-9.6C39.8,48.2,47.4,43.2,44.8,36.7z M40.7,21.9c0.3-0.8,1-1.3,1.8-1.3c0.2,0,0.4,0,0.6,0.1   c0.5,0.2,0.9,0.5,1.1,1c0.2,0.5,0.3,1,0.1,1.5l-2,6.1c-0.1,0.2-0.1,0.3-0.2,0.4c0,0.1-0.1,0.1-0.1,0.2c-0.1,0.1-0.1,0.2-0.2,0.2   c-0.1,0.1-0.1,0.1-0.2,0.1c-0.1,0.1-0.2,0.1-0.3,0.2c-0.1,0-0.1,0.1-0.2,0.1c-0.2,0.1-0.3,0.1-0.5,0.1c0,0,0,0,0,0   c-0.2,0-0.4,0-0.6-0.1c-0.1,0-0.2-0.1-0.3-0.2c0,0-0.1-0.1-0.1-0.1c-0.1,0-0.1-0.1-0.2-0.1c-0.1,0-0.1-0.1-0.1-0.1   c0,0-0.1-0.1-0.1-0.1c-0.1-0.1-0.1-0.1-0.1-0.2c0,0,0-0.1,0-0.1c0-0.1-0.1-0.2-0.1-0.3c0,0,0,0,0,0c-0.1-0.3-0.1-0.7-0.1-1   c0,0,0,0,0,0c0-0.1,0-0.1,0-0.2L40.7,21.9z M37.6,28.6C37.6,28.6,37.6,28.6,37.6,28.6c0,0.1,0,0.2,0.1,0.3c0,0.1,0,0.1,0,0.2   c0,0.1,0,0.2,0.1,0.3c0,0.1,0.1,0.2,0.1,0.2c0,0.1,0.1,0.1,0.1,0.2c0.1,0.1,0.2,0.3,0.3,0.4c0,0,0.1,0.1,0.1,0.1   c0.1,0.1,0.2,0.2,0.3,0.3c0,0,0.1,0.1,0.1,0.1c0.1,0.1,0.2,0.1,0.3,0.2c0,0,0.1,0.1,0.1,0.1c0.2,0.1,0.3,0.2,0.5,0.2   c0.1,0,0.3,0.1,0.4,0.1c0.1,0,0.2,0,0.3,0c0,0,0.1,0,0.1,0c0,0,0.1,0,0.1,0c0.1,0,0.2,0,0.3,0c0,0,0,0,0.1,0c0.4,0,0.8-0.2,1.1-0.4   c0,0,0,0,0,0c0.1-0.1,0.2-0.1,0.3-0.2c0,0,0,0,0.1-0.1c0.1-0.1,0.2-0.1,0.2-0.2c0,0,0,0,0,0c0.2,0.3,0.4,0.7,0.5,1.1   c0.2,0.8,0.2,1.6,0,2.4c-2.1-2.2-5-2.7-7.4-2.7c-0.4,0-0.7,0-1,0C35.2,30.1,36.3,29.1,37.6,28.6z M37.2,48.5   c-0.2,0.1-0.3,0.4-0.2,0.6l2.8,9.5l-7.4,2.2c-0.2,0.1-0.4,0.3-0.4,0.5l0.4,8.4l-3.1,0.6c-0.2,0-0.3,0.2-0.4,0.3l-1.8,5.1   c-6.1-13.5-7.3-26.2-3.5-34.8c1.9-4.2,4.9-7.1,8.6-8.2c0,0,0.7-0.2,1.8-0.3c0,0,0,0,0,0c0.5-0.1,1.1-0.1,1.6-0.1   c2.3,0,5.3,0.5,7.2,3c0,0,0,0,0,0c0.3,0.5,0.7,1,0.9,1.6C46.5,43.5,37.3,48.5,37.2,48.5z"/></g></svg>