<svg xmlns="http://www.w3.org/2000/svg" viewBox="0 0 90 112.5" x="0px" y="0px"><title>Zig-Zag_Icon</title><g><path d="M83.29,39.64a38.42,38.42,0,0,0-1.79-7.38,37.67,37.67,0,0,0-2-4.66,38.51,38.51,0,0,0-9.5-12,38.24,38.24,0,0,0-9.09-5.78l-.7-.3A37.39,37.39,0,0,0,56.08,8c-.72-.21-1.44-.41-2.18-.58a38.29,38.29,0,0,0-6.56-1c-.78,0-1.56-.07-2.35-.07s-1.57,0-2.35.07a38.17,38.17,0,0,0-6.55,1c-.74.17-1.47.37-2.19.58a36.51,36.51,0,0,0-4.14,1.52,68.69,68.69,0,0,0-6.63,3.66A39.57,39.57,0,0,0,20,15.55a39,39,0,0,0-9.49,12,37.67,37.67,0,0,0-2,4.66A38.42,38.42,0,0,0,6.7,39.64,39.44,39.44,0,0,0,6.33,45c0,.22,0,.44,0,.66a36.64,36.64,0,0,0,.43,5.16,39.31,39.31,0,0,0,1,4.66,37.64,37.64,0,0,0,1.77,4.94,38.67,38.67,0,0,0,5.64,9.18c.85,1,1.74,2,2.68,2.92A38.65,38.65,0,0,0,45,83.67a38.27,38.27,0,0,0,17.92-4.42A38.62,38.62,0,0,0,74.8,69.6a38,38,0,0,0,5.64-9.18,36.28,36.28,0,0,0,1.78-4.94,39.33,39.33,0,0,0,1-4.66,36.66,36.66,0,0,0,.43-5.16c0-.22,0-.44,0-.66A39.43,39.43,0,0,0,83.29,39.64ZM79.67,45a33.94,33.94,0,0,1-.42,5.37l-3.38,3.38-5.14-5.14-5.15,5.14-5.14-5.14-5.15,5.14-5.14-5.14L45,53.75l-5.14-5.14L34.7,53.75l-5.14-5.14-5.15,5.14-5.14-5.14-5.15,5.14-3.37-3.37A34.07,34.07,0,0,1,10.33,45c0-.21,0-.42,0-.62l3.78,3.78L19.27,43l5.14,5.14L29.56,43l5.14,5.14L39.86,43,45,48.16,50.14,43l5.14,5.14L60.43,43l5.14,5.14L70.73,43l5.14,5.14,3.79-3.79C79.67,44.58,79.67,44.79,79.67,45ZM77,58.25a34.3,34.3,0,0,1-2.71,5.21l-3.6-3.6L65.57,65l-5.14-5.14L55.29,65l-5.14-5.14L45,65l-5.14-5.14L34.7,65l-5.14-5.14L24.42,65l-5.14-5.14-3.6,3.6a32.84,32.84,0,0,1-2.7-5.2l1.15,1.15,5.15-5.14,5.14,5.14,5.15-5.14,5.14,5.14,5.15-5.14L45,59.41l5.15-5.14,5.14,5.14,5.15-5.14,5.14,5.14,5.15-5.14,5.14,5.14ZM75.86,42.5l-5.14-5.14L65.57,42.5l-5.14-5.14L55.29,42.5l-5.14-5.14L45,42.5l-5.14-5.14L34.7,42.5l-5.14-5.14L24.42,42.5l-5.14-5.14L14.12,42.5l-3.3-3.3a35.41,35.41,0,0,1,1.07-4.52l2.23,2.23,5.15-5.14,5.14,5.14,5.15-5.14,5.14,5.14,5.15-5.14L45,36.91l5.15-5.14,5.14,5.14,5.15-5.14,5.14,5.14,5.15-5.14,5.14,5.14,2.23-2.23a33.67,33.67,0,0,1,1.08,4.51Zm-43-30,1.87,1.87L38.1,11c1-.2,2-.36,3-.47L45,14.41l3.87-3.86a30.54,30.54,0,0,1,3,.48l3.38,3.38,1.88-1.87a34.42,34.42,0,0,1,10,5.85L65.57,20l-5.14-5.14L55.29,20l-5.14-5.14L45,20l-5.14-5.14L34.7,20l-5.14-5.14L24.42,20,22.8,18.39A34.61,34.61,0,0,1,32.83,12.54Zm-13,8.59,4.53,4.53,5.15-5.14,5.14,5.14,5.15-5.14L45,25.66l5.15-5.14,5.14,5.14,5.15-5.14,5.14,5.14,4.54-4.53a34.79,34.79,0,0,1,6.41,9.46l-.66.66-5.14-5.14-5.15,5.14-5.14-5.14-5.15,5.14-5.14-5.14L45,31.25l-5.14-5.14L34.7,31.25l-5.14-5.14-5.15,5.14-5.14-5.14-5.15,5.14-.65-.65A34.62,34.62,0,0,1,19.88,21.13ZM37.73,78.9l2.13-2.13,2.82,2.82A33.51,33.51,0,0,1,37.73,78.9Zm9.6.69,2.82-2.82,2.13,2.13A33.51,33.51,0,0,1,47.32,79.59Zm16.25-5.34-3.14-3.14-5.15,5.14-5.14-5.14L45,76.25l-5.14-5.14L34.7,76.25l-5.14-5.14-3.15,3.15A34.85,34.85,0,0,1,18,66.76l1.24-1.24,5.14,5.14,5.15-5.14,5.14,5.14,5.15-5.14L45,70.66l5.15-5.14,5.14,5.14,5.15-5.14,5.14,5.14,5.15-5.14L72,66.76A34.65,34.65,0,0,1,63.57,74.25Z"/></g><text x="0" y="105" fill="#000000" font-size="5px" font-weight="bold" font-family="'Helvetica Neue', Helvetica, Arial-Unicode, Arial, Sans-serif">Created by Leo Kennedy</text><text x="0" y="110" fill="#000000" font-size="5px" font-weight="bold" font-family="'Helvetica Neue', Helvetica, Arial-Unicode, Arial, Sans-serif">from the Noun Project</text></svg>